<?xml version="1.0" encoding="utf-8"?>
<!-- Generator: Adobe Illustrator 25.4.1, SVG Export Plug-In . SVG Version: 6.00 Build 0)  -->
<svg version="1.0" id="Livello_1" xmlns="http://www.w3.org/2000/svg" xmlns:xlink="http://www.w3.org/1999/xlink" x="0px" y="0px"
	 viewBox="0 0 637.4 352" style="enable-background:new 0 0 637.4 352;" xml:space="preserve">
<g>
	<path style="fill:#060606;" d="M24.9,348.2C8.5,341.4-5.3,314.5,2,297.9c3.1-7.4,8.4-10.8,17-10.8c5.6,0,7.9,1,11.7,4.8
		c4,3.9,4.8,6.1,4.8,12.3c0,6.7-0.8,8.4-5.8,13.1l-5.7,5.4l4.5,6.9c17.1,25.8,37.7,6.7,46.9-43.1c4.1-22.6,3.8-65-0.8-86.6
		c-3.1-14.1-6.3-23.5-11.2-33.7c7.4-14.5,7.7-13.4,9.5-40.2c2.6-42.8,7.1-64.3,18.7-88.4c18.2-37.5,46.3-48.1,70.3-26.6
		c22.7,20.4,20.4,55.2-3.6,54.6c-7.3-0.1-15-6.4-16.3-13.1c-1.2-6.5,1.8-14.5,7.1-18.7l4.8-3.8c0,0-4.7-7.1-4.7-7.1
		c-11.7-17.2-25.3-14.7-35.9,7c-19,39.5-18.9,112,0.3,157c-6.2,13.7-7.1,16.1-8.6,39.4c-0.8,12.4-2.2,27.8-3.1,34
		C92.9,314.6,69.9,366.6,24.9,348.2L24.9,348.2z M579.9,348.2c-31.8-15.3-45.9-77.9-46.2-117.1c0-15.7-2.6-30.1-6.6-38
		c-2.9-5.8-2.9-5.8,1.7-18.7c12.3-35,13.1-91.9,1.6-130.5c-5.4-18.5-16.6-32.4-26.1-32.4c-5.4,0-14.8,7.7-17.6,14.5
		c-1.8,4.5-1.7,5.2,3,9.1c14.8,12.3,2.6,34.9-16.1,30c-8.6-2.3-12.8-9.2-12.8-20.4c0-30.7,30.3-53,56.3-41.4
		c25.9,11.8,47.5,65.5,47.5,118.7c0.1,21,2.5,31.3,10,44.1c-9.8,20.9-13.1,36.8-14.4,69.1c-1.6,47.1,6.4,83.8,21.5,99.9
		c12.2,12.8,23.2,2.4,30-8.9c1.7-3.4,1.6-4.3-1.2-6.5c-14.9-12.2-9.3-32.4,8.9-32.4c6-0.1,8,0.8,12.6,5.4c5.2,5.1,5.6,6.2,5.6,15.8
		C637.4,339.5,606.6,360.8,579.9,348.2L579.9,348.2z"/>
</g>
</svg>
